<svg width="512" height="512" viewBox="0 0 512 512" fill="none" xmlns="http://www.w3.org/2000/svg">
  <!-- Engrenagem Prata ULTRAMAX (Preenchendo quase 100% do quadro) -->
  <!-- Aumentando o raio externo para preencher as bordas -->
  <path d="M256 100C170 100 100 170 100 256C100 342 170 412 256 412C342 412 412 342 412 256C412 170 342 100 256 100ZM256 365C196 365 147 316 147 256C147 196 196 147 256 147C316 147 365 196 365 256C365 316 316 365 256 365Z" fill="#B0B0B0"/>
  <path d="M512 232H485C480 190 468 150 450 115L475 90C482 83 482 72 475 65L447 37C440 30 429 30 422 37L397 62C362 44 322 32 280 27V0C280 -8 272 -15 264 -15H248C240 -15 232 -8 232 0V27C190 32 150 44 115 62L90 37C83 30 72 30 65 37L37 65C30 72 30 83 37 90L62 115C44 150 32 190 27 232H0C-8 232 -15 240 -15 248V264C-15 272 -8 280 0 280H27C32 322 44 362 62 397L37 422C30 429 30 440 37 447L65 475C72 482 83 482 90 475L115 450C150 468 190 480 232 485V512C232 520 240 527 248 527H264C272 527 280 520 280 512V485C322 480 362 468 397 450L422 475C429 482 440 482 447 475L475 447C482 440 482 429 475 422L450 397C468 362 480 322 485 280H512C520 280 527 272 527 264V248C527 240 520 232 512 232ZM256 425C163 425 87 349 87 256C87 163 163 87 256 87C349 87 425 163 425 256C425 349 349 425 256 425Z" fill="#B0B0B0"/>
  
  <!-- Xícara Clássica BRANCA (MAIOR AINDA - Estilo Manus) -->
  <!-- Corpo da Xícara Arredondado -->
  <path d="M150 210C150 285 197 340 256 340C315 340 362 285 362 210H150Z" fill="#FFFFFF"/>
  <!-- Alça da Xícara -->
  <path d="M362 235C385 235 405 247 405 265C405 283 385 295 362 295V282C375 282 388 276 388 265C388 254 375 248 362 248V235Z" fill="#FFFFFF"/>
  <!-- Fumaça Branca -->
  <path d="M220 185C220 185 228 165 220 145C212 125 228 105 228 105" stroke="#FFFFFF" stroke-width="8" stroke-linecap="round"/>
  <path d="M256 185C256 185 264 165 256 145C248 125 256 105 256 105" stroke="#FFFFFF" stroke-width="8" stroke-linecap="round"/>
  <path d="M292 185C292 185 300 165 292 145C284 125 300 105 300 105" stroke="#FFFFFF" stroke-width="8" stroke-linecap="round"/>
  
  <!-- Líquido Escuro -->
  <ellipse cx="256" cy="210" rx="85" ry="42" fill="#333333"/>
</svg>
